<svg width="122" height="87" viewBox="0 0 122 87" fill="none" xmlns="http://www.w3.org/2000/svg">
<g clip-path="url(#clip0_160_921)">
<g filter="url(#filter0_d_160_921)">
<path d="M30.75 0V17.4262L0.5 34.8524V17.5572L30.75 0Z" fill="url(#paint0_linear_160_921)"/>
<path d="M0.5 69.7048L15.5922 60.9261V26.0737L0.5 34.7213V69.7048Z" fill="url(#paint1_linear_160_921)"/>
<path d="M60.9996 17.4263V34.8525L15.5918 61.0573V43.6311L60.9996 17.4263Z" fill="url(#paint2_linear_160_921)"/>
<path d="M30.75 0V17.4262L45.9078 26.2048L61 17.4262L30.75 0Z" fill="url(#paint3_linear_160_921)"/>
<path d="M0.5 69.574L15.7234 60.7954L30.75 69.574V87.0002L0.5 69.574Z" fill="url(#paint4_linear_160_921)"/>
<path d="M61 69.4426V52.1475L30.75 69.5737V86.9999L61 69.4426Z" fill="url(#paint5_linear_160_921)"/>
</g>
<g filter="url(#filter1_d_160_921)">
<path d="M91.25 0V17.4262L121.5 34.8524V17.5572L91.25 0Z" fill="url(#paint6_linear_160_921)"/>
<path d="M121.5 69.7048L106.408 60.9261V26.0737L121.5 34.7213V69.7048Z" fill="url(#paint7_linear_160_921)"/>
<path d="M61.0004 17.4263V34.8525L106.408 61.0573V43.6311L61.0004 17.4263Z" fill="url(#paint8_linear_160_921)"/>
<path d="M91.25 0V17.4262L76.0922 26.2048L61 17.4262L91.25 0Z" fill="url(#paint9_linear_160_921)"/>
<path d="M121.5 69.574L106.277 60.7954L91.25 69.574V87.0002L121.5 69.574Z" fill="url(#paint10_linear_160_921)"/>
<path d="M61 69.4426V52.1475L91.25 69.5737V86.9999L61 69.4426Z" fill="url(#paint11_linear_160_921)"/>
</g>
</g>
<defs>
<filter id="filter0_d_160_921" x="-3.5" y="-4" width="68.5" height="95" filterUnits="userSpaceOnUse" color-interpolation-filters="sRGB">
<feFlood flood-opacity="0" result="BackgroundImageFix"/>
<feColorMatrix in="SourceAlpha" type="matrix" values="0 0 0 0 0 0 0 0 0 0 0 0 0 0 0 0 0 0 127 0" result="hardAlpha"/>
<feOffset/>
<feGaussianBlur stdDeviation="2"/>
<feComposite in2="hardAlpha" operator="out"/>
<feColorMatrix type="matrix" values="0 0 0 0 0 0 0 0 0 0 0 0 0 0 0 0 0 0 0.25 0"/>
<feBlend mode="normal" in2="BackgroundImageFix" result="effect1_dropShadow_160_921"/>
<feBlend mode="normal" in="SourceGraphic" in2="effect1_dropShadow_160_921" result="shape"/>
</filter>
<filter id="filter1_d_160_921" x="60" y="-1" width="62.5" height="89" filterUnits="userSpaceOnUse" color-interpolation-filters="sRGB">
<feFlood flood-opacity="0" result="BackgroundImageFix"/>
<feColorMatrix in="SourceAlpha" type="matrix" values="0 0 0 0 0 0 0 0 0 0 0 0 0 0 0 0 0 0 127 0" result="hardAlpha"/>
<feOffset/>
<feGaussianBlur stdDeviation="0.5"/>
<feComposite in2="hardAlpha" operator="out"/>
<feColorMatrix type="matrix" values="0 0 0 0 0 0 0 0 0 0 0 0 0 0 0 0 0 0 0.25 0"/>
<feBlend mode="normal" in2="BackgroundImageFix" result="effect1_dropShadow_160_921"/>
<feBlend mode="normal" in="SourceGraphic" in2="effect1_dropShadow_160_921" result="shape"/>
</filter>
<linearGradient id="paint0_linear_160_921" x1="30.75" y1="6.86592" x2="-1.64643" y2="23.9056" gradientUnits="userSpaceOnUse">
<stop stop-color="#014E9A"/>
<stop offset="0.71" stop-color="#0072FF"/>
</linearGradient>
<linearGradient id="paint1_linear_160_921" x1="15.5922" y1="34.669" x2="-4.17388" y2="38.8124" gradientUnits="userSpaceOnUse">
<stop stop-color="#014E9A"/>
<stop offset="0.71" stop-color="#0072FF"/>
</linearGradient>
<linearGradient id="paint2_linear_160_921" x1="60.9996" y1="26.0216" x2="16.5832" y2="54.034" gradientUnits="userSpaceOnUse">
<stop stop-color="#014E9A"/>
<stop offset="0.71" stop-color="#0072FF"/>
</linearGradient>
<linearGradient id="paint3_linear_160_921" x1="61" y1="5.16235" x2="33.2305" y2="24.5884" gradientUnits="userSpaceOnUse">
<stop stop-color="#014E9A"/>
<stop offset="0.71" stop-color="#0072FF"/>
</linearGradient>
<linearGradient id="paint4_linear_160_921" x1="30.75" y1="65.9578" x2="2.98054" y2="85.3838" gradientUnits="userSpaceOnUse">
<stop stop-color="#014E9A"/>
<stop offset="0.71" stop-color="#0072FF"/>
</linearGradient>
<linearGradient id="paint5_linear_160_921" x1="61" y1="59.0134" x2="28.6036" y2="76.0531" gradientUnits="userSpaceOnUse">
<stop stop-color="#014E9A"/>
<stop offset="0.71" stop-color="#0072FF"/>
</linearGradient>
<linearGradient id="paint6_linear_160_921" x1="106.408" y1="23.3223" x2="89.4484" y2="8.99917" gradientUnits="userSpaceOnUse">
<stop stop-color="#014E9A"/>
<stop offset="0.71" stop-color="#0072FF"/>
</linearGradient>
<linearGradient id="paint7_linear_160_921" x1="121.5" y1="61.1094" x2="104.721" y2="59.6144" gradientUnits="userSpaceOnUse">
<stop stop-color="#014E9A"/>
<stop offset="0.71" stop-color="#0072FF"/>
</linearGradient>
<linearGradient id="paint8_linear_160_921" x1="106.408" y1="52.462" x2="61.9919" y2="24.4496" gradientUnits="userSpaceOnUse">
<stop stop-color="#014E9A"/>
<stop offset="0.71" stop-color="#0072FF"/>
</linearGradient>
<linearGradient id="paint9_linear_160_921" x1="91.25" y1="21.0425" x2="63.4805" y2="1.61643" gradientUnits="userSpaceOnUse">
<stop stop-color="#014E9A"/>
<stop offset="1" stop-color="#0072FF"/>
</linearGradient>
<linearGradient id="paint10_linear_160_921" x1="103.783" y1="87.0002" x2="89.7949" y2="76.3036" gradientUnits="userSpaceOnUse">
<stop offset="0.308731" stop-color="#014E9A"/>
<stop offset="0.71" stop-color="#0072FF"/>
</linearGradient>
<linearGradient id="paint11_linear_160_921" x1="91.25" y1="80.1339" x2="58.8536" y2="63.0942" gradientUnits="userSpaceOnUse">
<stop stop-color="#014E9A"/>
<stop offset="0.71" stop-color="#0072FF"/>
</linearGradient>
<clipPath id="clip0_160_921">
<rect width="121" height="87" fill="white" transform="translate(0.5)"/>
</clipPath>
</defs>
</svg>
