<svg xmlns="http://www.w3.org/2000/svg" width="100" height="92" viewBox="0 0 100 92">
  <path id="icon_audio" d="M288.46,330a9.707,9.707,0,0,1-3.3-.578L221.9,312.312a10.576,10.576,0,0,1-5.7-5.033,10.437,10.437,0,0,1-.8-2.063,10.562,10.562,0,0,1-.35-2.161,10.727,10.727,0,0,1,.1-2.188,10.858,10.858,0,0,1,.549-2.143l9.4-31.7.015,2.488q.076,12.931.153,25.861a15.428,15.428,0,0,0,15.437,15.6H301.6l-3.193,9.7,0,.011-1.166,3.541A9.55,9.55,0,0,1,288.46,330ZM241.9,304.932a10.6,10.6,0,0,1-10.606-10.4V248.736a10.6,10.6,0,0,1,2.517-7.045,10.409,10.409,0,0,1,1.64-1.542A10.57,10.57,0,0,1,237.364,239a10.786,10.786,0,0,1,2.106-.724A10.959,10.959,0,0,1,241.7,238h62.922a11.009,11.009,0,0,1,4.124,1.016,10.8,10.8,0,0,1,3.427,2.507,10.937,10.937,0,0,1,2.853,7.045v45.627a11.138,11.138,0,0,1-.233,2.32,10.885,10.885,0,0,1-.707,2.2,10.578,10.578,0,0,1-1.16,1.993,10.341,10.341,0,0,1-4.805,3.579,10.817,10.817,0,0,1-3.666.647H241.9Zm19-27.012c-.082,0-.164,0-.245,0a7.549,7.549,0,1,0,0,15.1,7.878,7.878,0,0,0,2.492-.448,7.5,7.5,0,0,0,2.206-1.229,7.8,7.8,0,0,0,2.852-5.871V267.188l22.316-5.7V273.73a7.63,7.63,0,0,0-4.866-1.845h-.006a7.666,7.666,0,0,0-3.107.652,7.832,7.832,0,0,0-3.423,2.924,7.62,7.62,0,0,0-.681,1.33,7.228,7.228,0,0,0-.5,2.978,7.707,7.707,0,0,0,7.7,7.213h.021c.078,0,.157,0,.235,0a6.8,6.8,0,0,0,2.617-.507,8.4,8.4,0,0,0,4.7-6.542V250.077L265.7,256.955v22.981a6.6,6.6,0,0,0-3.277-1.848A6.791,6.791,0,0,0,260.908,277.919Z" transform="translate(-215.027 -238)" fill="#2a8bd3"/>
</svg>
