<svg xmlns="http://www.w3.org/2000/svg" width="100" height="94" viewBox="0 0 100 94">
  <path id="icon_excel" d="M309.109,365.691l-38.637-7.148L258.33,356.3a3.318,3.318,0,0,1-1.953-1.566,3.254,3.254,0,0,1-.391-1.566V284.277a3.069,3.069,0,0,1,2.344-3.131l13.935-2.628,35.868-6.766a3.591,3.591,0,0,1,.654-.06,3.459,3.459,0,0,1,2.275.843,3.4,3.4,0,0,1,.816,1.059,3.528,3.528,0,0,1,.356,1.289v9.394h40.819a3.038,3.038,0,0,1,1.173.27,2.968,2.968,0,0,1,.975.708,3.023,3.023,0,0,1,.781,1.957v63.018a3.055,3.055,0,0,1-.27,1.176,2.973,2.973,0,0,1-.707.977,3.01,3.01,0,0,1-1.953.783H312.234v9.59a3.4,3.4,0,0,1-1.172,2.153A3.356,3.356,0,0,1,309.109,365.691Zm3.134-25.051V346.9h37.489V290.54H312.244V296.8h28.2a3.226,3.226,0,0,1,1.325.282,3.275,3.275,0,0,1,1.056.752,3.2,3.2,0,0,1,.663,1.055,2.955,2.955,0,0,1,.192,1.238,3.069,3.069,0,0,1-1,2.067,3.261,3.261,0,0,1-2.22.87H312.244v6.263h28.124c.055,0,.111,0,.166,0a3.136,3.136,0,0,1,0,6.271c-.055,0-.111,0-.166,0H312.244v6.263h28.124c.055,0,.111,0,.166,0a3.136,3.136,0,0,1,0,6.271c-.055,0-.111,0-.166,0H312.244v6.263h28.124c.055,0,.111,0,.166,0a3.136,3.136,0,0,1,0,6.271c-.055,0-.111,0-.166,0Zm-37.53-37.6a3.13,3.13,0,0,0-2.517,1.2,3.254,3.254,0,0,0,0,3.718l8.789,10.177c-1.4,1.762-2.773,3.552-4.1,5.284s-2.7,3.522-4.1,5.284a3.916,3.916,0,0,0-1.085,3,2.857,2.857,0,0,0,1.085,2.089,3.061,3.061,0,0,0,1.838.589,3.619,3.619,0,0,0,2.458-.98l8.2-10.568,8.789,10.372a3.483,3.483,0,0,0,2.586,1.158,3.111,3.111,0,0,0,2.3-.962,3.357,3.357,0,0,0,0-4.305l-9.961-11.155,5.367-6.9,4.984-6.408a3.2,3.2,0,0,0-1.172-4.306,2.965,2.965,0,0,0-1.435-.364,3.266,3.266,0,0,0-2.472,1.147l-9.375,11.938-4.243-4.859-3.96-4.535A3.5,3.5,0,0,0,274.713,303.039Z" transform="translate(-255.983 -271.691)" fill="#127c45"/>
</svg>
