<svg xmlns="http://www.w3.org/2000/svg" width="100" height="80" viewBox="0 0 100 80">
  <path id="icon_folder" d="M244.041,376a10.741,10.741,0,0,0,5.326-1.667,11.178,11.178,0,0,0,4.775-6.852l11.388-39.074a9.645,9.645,0,0,1,9.184-7.222H334.04a6.512,6.512,0,0,1,5.326,3.518,6.426,6.426,0,0,1,.367,4.63l-11.2,38.333a10.819,10.819,0,0,1-4.592,6.667,10.464,10.464,0,0,1-5.51,1.667Zm-1.653-4.63a4.988,4.988,0,0,1-2.388-3.7V304.519A8.688,8.688,0,0,1,248.266,296h23.693a11.416,11.416,0,0,1,7.9,3.7l4.224,5.37a3.575,3.575,0,0,0,3.306,1.482h31.591a8.507,8.507,0,0,1,6.245,2.778,8.61,8.61,0,0,1,2.2,5.556v2.222H274.347a13.624,13.624,0,0,0-8.632,3.333,13.834,13.834,0,0,0-4.592,8.333l-11.387,39.074a6.68,6.68,0,0,1-5.635,3.9A3.835,3.835,0,0,1,242.388,371.37Z" transform="translate(-240 -296)" fill="#e9be0f"/>
</svg>
