<svg xmlns="http://www.w3.org/2000/svg" width="82" height="100" viewBox="0 0 82 100">
  <path id="icon_html" d="M388.7,372H332.559a11.506,11.506,0,0,1-3.479-.837,11.169,11.169,0,0,1-6.823-8.954v-5.625h-1.472a4.363,4.363,0,0,1-2.733-1.458A4.3,4.3,0,0,1,317,352.416V325.542a4.422,4.422,0,0,1,1.262-2.292A4.536,4.536,0,0,1,321.2,322h1.051V281.583a10.944,10.944,0,0,1,.893-3.235,10.722,10.722,0,0,1,1.841-2.807A11.062,11.062,0,0,1,332.138,272h41.42L399,297.208v65a10.824,10.824,0,0,1-.923,3.476,10.725,10.725,0,0,1-5.378,5.348A11.114,11.114,0,0,1,388.7,372Zm-59.713-15.417v4.792a3.891,3.891,0,0,0,1.051,2.708,4,4,0,0,0,2.913,1.25h55.117a4.349,4.349,0,0,0,2.733-1.042,4.3,4.3,0,0,0,1.472-3.125v-61.25H378.6a8.062,8.062,0,0,1-2.981-.718,7.823,7.823,0,0,1-4.588-6.782v-13.75H333.19a4.354,4.354,0,0,0-2.944,1.25,4.293,4.293,0,0,0-1.261,2.708V322h51.573a4.388,4.388,0,0,1,3.3,1.459,4.275,4.275,0,0,1,1.051,2.708v26.042a4.283,4.283,0,0,1-1.472,3.333,4.343,4.343,0,0,1-2.842,1.043H328.985Zm22.287-30.208-3.995,24.167,4.205.833,4-24.167Zm9.041,1.25-2.943,2.917,8.62,8.333-8.62,8.333,2.943,2.917,11.144-11.25Zm-17.872,0L331.3,338.875l11.144,11.25,2.943-2.917-8.62-8.333,8.62-8.333Z" transform="translate(-317 -272)" fill="#2db493"/>
</svg>
