<svg xmlns="http://www.w3.org/2000/svg" width="100" height="92" viewBox="0 0 100 92">
  <path id="icon_image" d="M285.16,329.422,221.9,312.312a10.575,10.575,0,0,1-5.7-5.033,10.435,10.435,0,0,1-.8-2.063,10.565,10.565,0,0,1-.35-2.161,10.733,10.733,0,0,1,.1-2.188,10.857,10.857,0,0,1,.549-2.143l9.4-31.7.015,2.488.153,25.861a15.428,15.428,0,0,0,15.437,15.6H301.6l-3.193,9.7,0,.011-1.166,3.541A9.551,9.551,0,0,1,288.46,330,9.709,9.709,0,0,1,285.16,329.422ZM237.9,304.148a10.6,10.6,0,0,1-6.6-9.618V248.736a10.6,10.6,0,0,1,2.517-7.045,10.412,10.412,0,0,1,1.64-1.542A10.576,10.576,0,0,1,237.364,239a10.778,10.778,0,0,1,2.106-.724A10.953,10.953,0,0,1,241.7,238h62.922a11.007,11.007,0,0,1,4.124,1.016,10.8,10.8,0,0,1,3.427,2.507,10.937,10.937,0,0,1,2.852,7.045v45.627a11.14,11.14,0,0,1-.233,2.32,10.9,10.9,0,0,1-.707,2.2,10.584,10.584,0,0,1-1.16,1.993,10.34,10.34,0,0,1-4.805,3.579,10.816,10.816,0,0,1-3.666.647H241.9A10.574,10.574,0,0,1,237.9,304.148Zm2.627-56.922a2.357,2.357,0,0,0-.671,1.342v39.421l9.734-9.876,1.509-1.531a7.561,7.561,0,0,1,2.37-1.686,7.432,7.432,0,0,1,2.832-.663c.082,0,.166,0,.248,0a7.437,7.437,0,0,1,2.967.616,7.57,7.57,0,0,1,2.49,1.737l4.7,4.865,10.449-12.514,5.659-6.777a7.3,7.3,0,0,1,10.067,0l13.759,16.1V248.568a2.847,2.847,0,0,0-2.181-2.013H242.038A2.348,2.348,0,0,0,240.527,247.226Zm11.746,20.13a8.47,8.47,0,1,1,.089,0Z" transform="translate(-215.027 -238)" fill="#1771cd"/>
</svg>
