<svg xmlns="http://www.w3.org/2000/svg" width="82" height="100" viewBox="0 0 82 100">
  <path id="icon_pdf" d="M332.559,372a11.505,11.505,0,0,1-3.479-.837,11.17,11.17,0,0,1-6.823-8.954v-5.625h-1.472a4.364,4.364,0,0,1-2.733-1.458A4.3,4.3,0,0,1,317,352.416V325.542a4.423,4.423,0,0,1,1.262-2.292A4.536,4.536,0,0,1,321.2,322h1.051V281.583a10.942,10.942,0,0,1,.893-3.235,10.719,10.719,0,0,1,1.84-2.807A11.061,11.061,0,0,1,332.138,272h41.42L399,297.208v65a10.829,10.829,0,0,1-.923,3.476,10.725,10.725,0,0,1-5.378,5.348,11.114,11.114,0,0,1-4,.968Zm-3.574-10.625a3.891,3.891,0,0,0,1.051,2.708,4,4,0,0,0,2.913,1.25h55.117a4.349,4.349,0,0,0,2.733-1.042,4.3,4.3,0,0,0,1.472-3.125v-61.25H378.6a8.062,8.062,0,0,1-2.981-.718,7.823,7.823,0,0,1-4.588-6.782v-13.75H333.19a4.353,4.353,0,0,0-2.944,1.25,4.292,4.292,0,0,0-1.261,2.708V322h51.572a4.388,4.388,0,0,1,3.3,1.459,4.275,4.275,0,0,1,1.051,2.708v26.042a4.283,4.283,0,0,1-1.472,3.333,4.344,4.344,0,0,1-2.842,1.043H328.985ZM349.8,330.541l-2.944.208-2.944.208v17.917a22.165,22.165,0,0,0,2.313.208c.427.016.851.024,1.262.024,5.48,0,9.229-1.41,11.143-4.19A8.965,8.965,0,0,0,360.1,339.5a7.971,7.971,0,0,0-.841-4.167c-1.532-2.958-5.037-4.8-9.147-4.8C350.011,330.538,349.9,330.539,349.8,330.541Zm12.826,18.333h4.415v-7.292h6.518v-3.542h-6.518v-3.958h6.938V330.75H362.625ZM333.82,330.541c-1.278.024-2.516.092-3.785.208-.64.059-1.259.127-1.892.208v17.917h4.205v-6.667h2.1c.147.008.3.011.441.011a6.342,6.342,0,0,0,5.657-2.928,5.332,5.332,0,0,0,.631-2.917,5.5,5.5,0,0,0-.631-2.5c-1.1-2.057-3.63-3.334-6.6-3.334Zm14.3,15.208V333.666h2.523a5.677,5.677,0,0,1,4.205,2.5,5.431,5.431,0,0,1,.841,3.333,5.706,5.706,0,0,1-1.262,4.167,5.809,5.809,0,0,1-3.785,2.083Zm-15.769-6.458v-5.625h2.523a2.9,2.9,0,0,1,1.472.625,2.933,2.933,0,0,1,1.051,2.083,3.247,3.247,0,0,1-1.262,2.292,3.214,3.214,0,0,1-1.682.625Z" transform="translate(-317 -272)" fill="#f44a02"/>
</svg>
