<svg xmlns="http://www.w3.org/2000/svg" width="100" height="94" viewBox="0 0 100 94">
  <path id="icon_ppt" d="M270.473,358.543,258.33,356.3a3.318,3.318,0,0,1-1.953-1.566,3.255,3.255,0,0,1-.391-1.566V284.277a3.069,3.069,0,0,1,2.344-3.131l13.935-2.628,35.868-6.766a3.6,3.6,0,0,1,.654-.06,3.459,3.459,0,0,1,2.275.843,3.4,3.4,0,0,1,.816,1.059,3.526,3.526,0,0,1,.356,1.289v9.394h40.819a3.038,3.038,0,0,1,1.173.27,2.964,2.964,0,0,1,.975.708,3.023,3.023,0,0,1,.781,1.957V350.23a3.055,3.055,0,0,1-.27,1.176,2.975,2.975,0,0,1-.707.977,3.011,3.011,0,0,1-1.953.783H312.234v9.59a3.4,3.4,0,0,1-1.172,2.153,3.357,3.357,0,0,1-1.953.783Zm41.771-11.64h37.489V290.539H312.244V296.8h28.2a3.224,3.224,0,0,1,1.325.282,3.271,3.271,0,0,1,1.056.752,3.2,3.2,0,0,1,.663,1.055,2.955,2.955,0,0,1,.192,1.238,3.07,3.07,0,0,1-1,2.067,3.261,3.261,0,0,1-2.22.87H312.244v6.263h28.124c.055,0,.111,0,.166,0a3.136,3.136,0,0,1,0,6.271c-.055,0-.111,0-.166,0H312.244v6.263h28.124c.055,0,.111,0,.166,0a3.136,3.136,0,0,1,0,6.271c-.055,0-.111,0-.166,0H312.244v6.263h28.124c.055,0,.111,0,.166,0a3.136,3.136,0,0,1,0,6.271c-.055,0-.111,0-.166,0H312.244Zm-39.656-10.568h6.25V324.592h1.758a12.484,12.484,0,0,0,9.961-4.7,12.181,12.181,0,0,0,2.539-7.241V310.5a9.073,9.073,0,0,0-2.734-6.654,8.822,8.822,0,0,0-4.883-2.348h-12.89Zm7.031-18.2c-.264-.054-.522-.119-.781-.2V307.762a9.46,9.46,0,0,1,1.562-.2c.261-.011.52-.011.781,0a4.936,4.936,0,0,1,2.929.978,5.028,5.028,0,0,1,1.953,3.523v1.37a5.244,5.244,0,0,1-1.953,3.914,4.946,4.946,0,0,1-2.344.979l-.2,0A9.63,9.63,0,0,1,279.618,318.134Z" transform="translate(-255.983 -271.691)" fill="#df4818"/>
</svg>
