<svg xmlns="http://www.w3.org/2000/svg" width="100" height="99.998" viewBox="0 0 100 99.998">
  <path id="icon_notepad" d="M323.381,364H264.593a9.629,9.629,0,0,1-3.687-1.066,9.068,9.068,0,0,1-4.367-5.024,9.478,9.478,0,0,1-.539-2.895V272.4a8.635,8.635,0,0,1,1.562-4.883,8.518,8.518,0,0,1,2.394-2.284A8.923,8.923,0,0,1,263.031,264h45.7v20.7a2.979,2.979,0,0,0,2.93,2.539H332.17v15.429l-22.851,27.148a13.982,13.982,0,0,0-3.125,6.25l-.485,2.054-2.054,8.688a9.365,9.365,0,0,0,.391,5.859,8.753,8.753,0,0,0,8.152,5.19,10.653,10.653,0,0,0,3.762-.7l11.328-5.078a10.99,10.99,0,0,0,4.883-4.1v7.031a9.01,9.01,0,0,1-2.344,6.055,8.9,8.9,0,0,1-2.924,2.122A9.078,9.078,0,0,1,323.381,364ZM270.642,340.17h23.443c.059,0,.117.005.172.005a2.935,2.935,0,1,0,0-5.87c-.057,0-.115,0-.172.005H270.642c-.056,0-.112,0-.168,0a2.935,2.935,0,1,0,0,5.869C270.53,340.175,270.586,340.174,270.642,340.17Zm0-17.578H305.9a3.029,3.029,0,0,0,3.029-2.736,2.9,2.9,0,0,0-.8-2.15,3.092,3.092,0,0,0-2.246-.976H270.567a3.09,3.09,0,0,0-2.245.976,2.9,2.9,0,0,0-.8,2.15,3.029,3.029,0,0,0,3.028,2.736Zm0-17.578h46.88c.058,0,.116.005.172.005a2.935,2.935,0,1,0,0-5.87c-.057,0-.115,0-.173.005h-46.88c-.056,0-.112,0-.168,0a2.935,2.935,0,1,0,0,5.869C270.53,305.02,270.587,305.018,270.642,305.015Zm-.028-23.633a3.075,3.075,0,0,0-3.091,2.539,2.855,2.855,0,0,0,.721,2.218,3.228,3.228,0,0,0,2.4,1.1h29.3c.059,0,.119.005.177.005a2.935,2.935,0,1,0,0-5.87c-.059,0-.118,0-.177.005H270.614Zm41.7,70.676a2.966,2.966,0,0,1-2.211-.951,2.861,2.861,0,0,1-.675-1.372,3.217,3.217,0,0,1,.089-1.558l2.539-11.133a12.426,12.426,0,0,1,1.562-3.32l.493-.658.092-.123.586-.781,13.476,11.328-1.367,1.562a5.314,5.314,0,0,1-2.734,1.953l-10.351,4.687A3.308,3.308,0,0,1,312.312,352.059ZM331.975,339h0l-13.281-11.328L334.9,308.53l13.281,11.328L331.975,339Zm20.117-23.632-13.476-11.133,2.148-2.539a8.686,8.686,0,0,1,3-2.126,8.884,8.884,0,0,1,6.328-.253,8.635,8.635,0,0,1,2.586,1.4,8.826,8.826,0,0,1,1.758,11.914l-2.344,2.734Zm-20.117-33.984H314.592V264.195a9.769,9.769,0,0,1,3.906,2.149l11.133,10.547a8.383,8.383,0,0,1,2.344,4.492Z" transform="translate(-256 -264)" fill="#616573"/>
</svg>
