<svg xmlns="http://www.w3.org/2000/svg" width="100" height="92" viewBox="0 0 100 92">
  <path id="icon_video" d="M285.16,329.422,221.9,312.312a10.575,10.575,0,0,1-5.7-5.033,10.435,10.435,0,0,1-.8-2.063,10.565,10.565,0,0,1-.35-2.161,10.733,10.733,0,0,1,.1-2.188,10.857,10.857,0,0,1,.549-2.143l9.4-31.7.015,2.488.153,25.861a15.428,15.428,0,0,0,15.437,15.6H301.6l-3.193,9.7,0,.011-1.166,3.541A9.551,9.551,0,0,1,288.46,330,9.709,9.709,0,0,1,285.16,329.422ZM237.9,304.148a10.6,10.6,0,0,1-6.6-9.618V248.736a10.6,10.6,0,0,1,2.517-7.045,10.412,10.412,0,0,1,1.64-1.542A10.576,10.576,0,0,1,237.364,239a10.778,10.778,0,0,1,2.106-.724A10.953,10.953,0,0,1,241.7,238h62.922a11.007,11.007,0,0,1,4.124,1.016,10.8,10.8,0,0,1,3.427,2.507,10.937,10.937,0,0,1,2.852,7.045v45.627a11.14,11.14,0,0,1-.233,2.32,10.9,10.9,0,0,1-.707,2.2,10.584,10.584,0,0,1-1.16,1.993,10.34,10.34,0,0,1-4.805,3.579,10.816,10.816,0,0,1-3.666.647H241.9A10.574,10.574,0,0,1,237.9,304.148Zm47.6-17.67h5.537a.842.842,0,0,0,.5-.168.864.864,0,0,0,.336-.671v-7.213H285.5Zm-22.149,0h19.8V256.452h-19.8Zm-8.725-.839a.864.864,0,0,0,.336.671.842.842,0,0,0,.5.168H261v-8.052h-6.376Zm30.874-9.561h6.376v-9.226H285.5Zm-30.874,0H261v-9.226h-6.376Zm.168-19.291a.839.839,0,0,0-.168.5v7.381H261v-8.22h-5.537A.864.864,0,0,0,254.79,256.787ZM285.5,264.5h6.376v-7.213a.839.839,0,0,0-.168-.5.864.864,0,0,0-.671-.335H285.5Zm-15.6,12.078a1.306,1.306,0,0,1-.671-.839v-8.555a1.2,1.2,0,0,1,.5-.839,1.241,1.241,0,0,1,1.342,0l7.383,4.361a1.01,1.01,0,0,1,0,1.51l-7.383,4.361a1.327,1.327,0,0,1-.59.139A1.292,1.292,0,0,1,269.891,276.581Z" transform="translate(-215.027 -238)" fill="#0474e6"/>
</svg>
