<svg xmlns="http://www.w3.org/2000/svg" width="82" height="100" viewBox="0 0 82 100">
  <path id="icon_zip" d="M332.559,372a11.505,11.505,0,0,1-3.479-.837,11.17,11.17,0,0,1-6.823-8.954v-5.625h-1.472a4.364,4.364,0,0,1-2.733-1.458A4.3,4.3,0,0,1,317,352.416V325.542a4.423,4.423,0,0,1,1.262-2.292A4.536,4.536,0,0,1,321.2,322h1.051V281.583a10.942,10.942,0,0,1,.893-3.235,10.719,10.719,0,0,1,1.84-2.807A11.061,11.061,0,0,1,332.138,272h41.42L399,297.208v65a10.829,10.829,0,0,1-.923,3.476,10.725,10.725,0,0,1-5.378,5.348,11.114,11.114,0,0,1-4,.968Zm-3.574-10.625a3.891,3.891,0,0,0,1.051,2.708,4,4,0,0,0,2.913,1.25h55.117a4.349,4.349,0,0,0,2.733-1.042,4.3,4.3,0,0,0,1.472-3.125v-61.25H378.6a8.062,8.062,0,0,1-2.981-.718,7.823,7.823,0,0,1-4.588-6.782v-13.75H333.19a4.353,4.353,0,0,0-2.944,1.25,4.292,4.292,0,0,0-1.261,2.708V322h51.572a4.388,4.388,0,0,1,3.3,1.459,4.275,4.275,0,0,1,1.051,2.708v26.042a4.283,4.283,0,0,1-1.472,3.333,4.344,4.344,0,0,1-2.842,1.043H328.985Zm33.01-30.208v17.5l.42.417h3.574l.42-.417v-6.25h3.574c.122.007.246.011.368.011a5.845,5.845,0,1,0,0-11.689c-.122,0-.246,0-.368.011h-7.569Zm-12.405,0v17.5l.421.417h3.574l.42-.417v-17.5l-.42-.417H350.01Zm-21.026,0v2.917l.421.417h7.569l-9.041,10.833v3.333l.42.417h14.3l.42-.417V345.75l-.42-.417h-9.251l9.462-11.458v-2.708l-.421-.417H328.985Zm40.79,7.5H366.41V334.5h2.944a2.114,2.114,0,1,1,.3,4.186A2.31,2.31,0,0,1,369.354,338.667Z" transform="translate(-317 -272)" fill="#edd890"/>
</svg>
